<?xml version="1.0" encoding="UTF-8" standalone="no"?>
<svg
   xmlns:dc="http://purl.org/dc/elements/1.1/"
   xmlns:cc="http://creativecommons.org/ns#"
   xmlns:rdf="http://www.w3.org/1999/02/22-rdf-syntax-ns#"
   xmlns:svg="http://www.w3.org/2000/svg"
   xmlns="http://www.w3.org/2000/svg"
   xmlns:sodipodi="http://sodipodi.sourceforge.net/DTD/sodipodi-0.dtd"
   xmlns:inkscape="http://www.inkscape.org/namespaces/inkscape"
   width="1792"
   height="1792"
   viewBox="0 0 1792 1792"
   version="1.1"
   id="svg109"
   sodipodi:docname="fa-exclamation-triangle-red.svg"
   inkscape:version="0.92.2 (unknown)">
  <metadata
     id="metadata115">
    <rdf:RDF>
      <cc:Work
         rdf:about="">
        <dc:format>image/svg+xml</dc:format>
        <dc:type
           rdf:resource="http://purl.org/dc/dcmitype/StillImage" />
        <dc:title></dc:title>
      </cc:Work>
    </rdf:RDF>
  </metadata>
  <defs
     id="defs113" />
  <sodipodi:namedview
     pagecolor="#ffffff"
     bordercolor="#666666"
     borderopacity="1"
     objecttolerance="10"
     gridtolerance="10"
     guidetolerance="10"
     inkscape:pageopacity="0"
     inkscape:pageshadow="2"
     inkscape:window-width="1516"
     inkscape:window-height="928"
     id="namedview111"
     showgrid="false"
     inkscape:zoom="0.13169643"
     inkscape:cx="896"
     inkscape:cy="896"
     inkscape:window-x="65"
     inkscape:window-y="24"
     inkscape:window-maximized="0"
     inkscape:current-layer="svg109" />
  <rect
     style="fill:#ffffff;stroke:none;stroke-width:0.92585194"
     id="rect3835"
     width="440.48077"
     height="1078.2948"
     x="675.75146"
     y="432.7847"
     rx="0"
     ry="0" />
  <path
     d="M1024 1375v-190q0-14-9.5-23.5t-22.5-9.5h-192q-13 0-22.5 9.5t-9.5 23.5v190q0 14 9.5 23.5t22.5 9.5h192q13 0 22.5-9.5t9.5-23.5zm-2-374l18-459q0-12-10-19-13-11-24-11h-220q-11 0-24 11-10 7-10 21l17 457q0 10 10 16.5t24 6.5h185q14 0 23.5-6.5t10.5-16.5zm-14-934l768 1408q35 63-2 126-17 29-46.5 46t-63.5 17h-1536q-34 0-63.5-17t-46.5-46q-37-63-2-126l768-1408q17-31 47-49t65-18 65 18 47 49z"
     id="path107"
     fill="white"
     style="stroke:#ff0000;fill:#ff0000" />
</svg>
